<svg xmlns="http://www.w3.org/2000/svg" xmlns:xlink="http://www.w3.org/1999/xlink" width="800" zoomAndPan="magnify" viewBox="0 0 600 97.5" height="130" preserveAspectRatio="xMidYMid meet" version="1.0"><defs><clipPath id="c371b4c0c3"><path d="M 1.53125 0 L 598.46875 0 L 598.46875 97.003906 L 1.53125 97.003906 Z M 1.53125 0 " clip-rule="nonzero"/></clipPath><clipPath id="1b88ca6d25"><path d="M 1.53125 3 L 71 3 L 71 95 L 1.53125 95 Z M 1.53125 3 " clip-rule="nonzero"/></clipPath><clipPath id="ed3a136f40"><path d="M 157 1.289062 L 253 1.289062 L 253 96 L 157 96 Z M 157 1.289062 " clip-rule="nonzero"/></clipPath><clipPath id="535f3bdaa6"><path d="M 533 3 L 598.46875 3 L 598.46875 95 L 533 95 Z M 533 3 " clip-rule="nonzero"/></clipPath></defs><g clip-path="url(#c371b4c0c3)"><path fill="#ffffff" d="M 1.53125 0 L 598.46875 0 L 598.46875 97.003906 L 1.53125 97.003906 Z M 1.53125 0 " fill-opacity="1" fill-rule="nonzero"/><path fill="#ffffff" d="M 1.53125 0 L 598.46875 0 L 598.46875 97.003906 L 1.53125 97.003906 Z M 1.53125 0 " fill-opacity="1" fill-rule="nonzero"/></g><path fill="#37ccba" d="M 310.925781 75.394531 L 329.847656 75.394531 L 329.847656 94.386719 L 310.925781 94.386719 Z M 310.925781 75.394531 " fill-opacity="1" fill-rule="nonzero"/><path fill="#523be1" d="M 329.828125 3.800781 L 329.828125 56.40625 L 310.90625 56.40625 L 310.90625 32.570312 L 287.984375 56.40625 L 310.347656 56.40625 C 315.578125 56.40625 319.808594 60.648438 319.808594 65.898438 C 319.808594 71.148438 315.578125 75.394531 310.347656 75.394531 L 267.011719 75.394531 C 264.75 75.394531 262.90625 73.546875 262.90625 71.273438 L 262.90625 58.113281 C 262.90625 57.019531 263.308594 55.980469 264.046875 55.171875 L 310.925781 3.800781 L 329.847656 3.800781 Z M 329.828125 3.800781 " fill-opacity="1" fill-rule="nonzero"/><path fill="#e15313" d="M 339.304688 56.40625 C 339.925781 56.40625 340.542969 56.464844 341.152344 56.585938 C 341.761719 56.707031 342.351562 56.886719 342.925781 57.128906 C 343.5 57.367188 344.046875 57.660156 344.5625 58.003906 C 345.078125 58.351562 345.554688 58.746094 345.996094 59.183594 C 346.433594 59.625 346.828125 60.105469 347.171875 60.625 C 347.515625 61.144531 347.808594 61.691406 348.046875 62.265625 C 348.285156 62.84375 348.464844 63.4375 348.585938 64.046875 C 348.707031 64.660156 348.765625 65.277344 348.765625 65.898438 C 348.765625 66.523438 348.707031 67.140625 348.585938 67.753906 C 348.464844 68.363281 348.285156 68.957031 348.046875 69.535156 C 347.808594 70.109375 347.515625 70.65625 347.171875 71.175781 C 346.828125 71.691406 346.433594 72.171875 345.996094 72.613281 C 345.554688 73.054688 345.078125 73.449219 344.5625 73.792969 C 344.046875 74.140625 343.5 74.433594 342.925781 74.671875 C 342.351562 74.910156 341.761719 75.089844 341.152344 75.210938 C 340.542969 75.335938 339.925781 75.394531 339.304688 75.394531 C 338.683594 75.394531 338.070312 75.335938 337.460938 75.210938 C 336.851562 75.089844 336.261719 74.910156 335.6875 74.671875 C 335.113281 74.433594 334.566406 74.140625 334.050781 73.792969 C 333.535156 73.449219 333.054688 73.054688 332.617188 72.613281 C 332.175781 72.171875 331.785156 71.691406 331.441406 71.175781 C 331.09375 70.65625 330.804688 70.109375 330.566406 69.535156 C 330.328125 68.957031 330.148438 68.363281 330.027344 67.753906 C 329.90625 67.140625 329.847656 66.523438 329.847656 65.898438 C 329.847656 65.277344 329.90625 64.660156 330.027344 64.046875 C 330.148438 63.4375 330.328125 62.84375 330.566406 62.265625 C 330.804688 61.691406 331.09375 61.144531 331.441406 60.625 C 331.785156 60.105469 332.175781 59.625 332.617188 59.183594 C 333.054688 58.746094 333.535156 58.351562 334.050781 58.003906 C 334.566406 57.660156 335.113281 57.367188 335.6875 57.128906 C 336.261719 56.886719 336.851562 56.707031 337.460938 56.585938 C 338.070312 56.464844 338.683594 56.40625 339.304688 56.40625 Z M 339.304688 56.40625 " fill-opacity="1" fill-rule="nonzero"/><g clip-path="url(#1b88ca6d25)"><path fill="#414042" d="M 39.546875 63.804688 L 14.605469 63.804688 L 14.605469 94.226562 L 1.53125 94.226562 L 1.53125 3.257812 L 39.230469 3.257812 C 53.238281 3.257812 70.3125 12.679688 70.3125 33.679688 C 70.3125 52.828125 53.535156 63.804688 39.546875 63.804688 Z M 40.003906 15.304688 L 14.605469 15.304688 L 14.605469 52.230469 L 39.074219 52.230469 C 47.375 52.230469 57.851562 44.65625 57.851562 33.695312 C 57.851562 22.121094 48.621094 15.324219 40.003906 15.324219 Z M 40.003906 15.304688 " fill-opacity="1" fill-rule="nonzero"/></g><path fill="#414042" d="M 126.777344 58.09375 C 134.167969 69.527344 142.785156 82.652344 150.015625 94.246094 L 135.394531 94.246094 C 135.394531 94.246094 115.703125 63.203125 112 58.554688 L 94.761719 58.554688 L 94.761719 94.246094 L 81.828125 94.246094 L 81.671875 3.273438 L 122.144531 3.273438 C 136.449219 3.273438 151.066406 13.316406 151.066406 30.613281 C 151.066406 44.972656 138.90625 56.5625 126.757812 58.09375 Z M 122.636719 14.53125 L 94.78125 14.53125 L 94.78125 46.820312 L 122.636719 46.820312 C 130.953125 46.820312 138.800781 39.246094 138.800781 30.613281 C 138.800781 21.03125 130.953125 14.546875 122.636719 14.546875 Z M 122.636719 14.53125 " fill-opacity="1" fill-rule="nonzero"/><g clip-path="url(#ed3a136f40)"><path fill="#414042" d="M 204.792969 95.9375 C 180.167969 95.9375 157.402344 76.945312 157.402344 48.671875 C 157.402344 20.398438 180.167969 1.40625 204.792969 1.40625 C 229.417969 1.40625 252.339844 20.554688 252.339844 48.828125 C 252.339844 77.105469 229.558594 95.9375 204.792969 95.9375 Z M 204.792969 13.136719 C 184.785156 13.136719 169.867188 29.203125 169.867188 48.828125 C 169.867188 68.453125 184.785156 83.886719 204.792969 83.886719 C 224.800781 83.886719 239.5625 68.136719 239.5625 48.828125 C 239.5625 29.523438 224.785156 13.136719 204.792969 13.136719 Z M 204.792969 13.136719 " fill-opacity="1" fill-rule="nonzero"/></g><path fill="#414042" d="M 380.886719 78.902344 L 374.269531 94.386719 L 352.523438 94.386719 L 352.382812 92.464844 L 391.75 3.257812 L 408.933594 3.257812 L 446.527344 92.449219 L 446.683594 94.367188 L 424.203125 94.367188 L 418.183594 78.882812 L 380.867188 78.882812 Z M 409.96875 58.695312 L 399.683594 33.328125 L 389.097656 58.695312 Z M 409.96875 58.695312 " fill-opacity="1" fill-rule="nonzero"/><path fill="#414042" d="M 480.453125 3.414062 L 480.453125 73 L 522.507812 73 L 522.507812 94.386719 L 457.691406 94.386719 L 457.691406 3.414062 Z M 480.453125 3.414062 " fill-opacity="1" fill-rule="nonzero"/><g clip-path="url(#535f3bdaa6)"><path fill="#414042" d="M 556.417969 3.414062 L 556.417969 73 L 598.46875 73 L 598.46875 94.386719 L 533.652344 94.386719 L 533.652344 3.414062 Z M 556.417969 3.414062 " fill-opacity="1" fill-rule="nonzero"/></g></svg>